<?xml version="1.0" encoding="UTF-8"?>
<svg width="270px" height="45px" viewBox="0 0 270 45" version="1.1" xmlns="http://www.w3.org/2000/svg" xmlns:xlink="http://www.w3.org/1999/xlink">
    <!-- Generator: Sketch 50.2 (55047) - http://www.bohemiancoding.com/sketch -->
    <title>Artboard</title>
    <desc>Created with Sketch.</desc>
    <defs></defs>
    <g id="Artboard" stroke="none" stroke-width="1" fill="none" fill-rule="evenodd">
        <polyline id="Fill-1" fill="#FFFFFF" points="53.9340816 10.7132653 47.6383673 10.7132653 47.6383673 6.08765306 66.0346939 6.08765306 66.0346939 10.7132653 59.7389796 10.7132653 59.7389796 27.5907143 53.9340816 27.5907143 53.9340816 10.7132653"></polyline>
        <polyline id="Fill-2" fill="#FFFFFF" points="68.4940816 6.08765306 74.3202041 6.08765306 74.3202041 14.3970408 81.0231633 14.3970408 81.0231633 6.08765306 86.8705102 6.08765306 86.8705102 27.5907143 81.0231633 27.5907143 81.0231633 19.0014286 74.3202041 19.0014286 74.3202041 27.5907143 68.4940816 27.5907143 68.4940816 6.08765306"></polyline>
        <path d="M94.0642857,27.5907143 C93.4859184,27.5907143 93.0786735,27.5694898 92.7788776,27.5469388 C92.5003061,27.5257143 92.2217347,27.4620408 91.9219388,27.3758163 C90.980102,27.1184694 90.3155102,26.6263265 89.9082653,25.9206122 C89.5023469,25.2135714 89.287449,24.2067347 89.287449,22.9213265 L89.287449,10.5209184 C89.287449,9.6427551 89.3736735,8.93571429 89.5447959,8.42234694 C89.7159184,7.90765306 89.9732653,7.45795918 90.3791837,7.0944898 C91.0437755,6.49489796 91.9007143,6.17387755 92.95,6.10887755 C93.1635714,6.08765306 93.5708163,6.08765306 94.1704082,6.08765306 L105.757653,6.08765306 L105.757653,10.7132653 L96.8911224,10.7132653 C96.1840816,10.7132653 95.7131633,10.8419388 95.4770408,11.0992857 C95.2422449,11.3566327 95.1135714,11.8487755 95.1135714,12.5982653 L95.1135714,14.5257143 L105.692653,14.5257143 L105.692653,19.1526531 L95.1135714,19.1526531 L95.1135714,21.2936735 C95.1135714,21.7645918 95.1560204,22.1293878 95.2422449,22.3429592 C95.3483673,22.5790816 95.4982653,22.7289796 95.7343878,22.8138776 C95.9691837,22.900102 96.3339796,22.942551 96.8261224,22.942551 L105.757653,22.942551 L105.757653,27.5907143 L94.0642857,27.5907143" id="Fill-3" fill="#FFFFFF"></path>
        <path d="M119.145,14.7180612 C119.850714,14.7180612 120.344184,14.5681633 120.621429,14.2683673 C120.901327,13.9685714 121.049898,13.4339796 121.049898,12.6844898 C121.049898,11.9986735 120.901327,11.4839796 120.600204,11.1841837 C120.300408,10.8631633 119.82949,10.7132653 119.187449,10.7132653 L114.218265,10.7132653 L114.218265,14.7180612 L119.145,14.7180612 Z M108.393469,6.08765306 L120.108061,6.08765306 C121.178571,6.08765306 122.142959,6.21632653 122.977347,6.49489796 C123.834286,6.75091837 124.541327,7.13693878 125.098469,7.65163265 C125.655612,8.165 126.082755,8.80704082 126.382551,9.55653061 C126.683673,10.3073469 126.833571,11.1841837 126.833571,12.1697959 C126.833571,13.5838776 126.533776,14.7618367 125.955408,15.7036735 C125.784286,15.9822449 125.611837,16.2183673 125.440714,16.4319388 C125.248367,16.6242857 124.99102,16.8604082 124.648776,17.1177551 C125.140918,17.3963265 125.505714,17.6735714 125.761735,17.9746939 C126.040306,18.2519388 126.23398,18.6167347 126.405102,19.0239796 C126.661122,19.6660204 126.812347,20.3306122 126.833571,20.9726531 C126.833571,21.122551 126.833571,21.272449 126.854796,21.4223469 C126.854796,21.5722449 126.854796,21.7858163 126.854796,22.1081633 L126.854796,27.5907143 L121.028673,27.5907143 L121.028673,23.3285714 C121.028673,22.7077551 120.921224,22.1293878 120.686429,21.5722449 C120.472857,21.015102 120.171735,20.5866327 119.787041,20.2443878 C119.40102,19.9233673 118.993776,19.6872449 118.522857,19.5585714 C118.073163,19.429898 117.431122,19.3662245 116.616633,19.3662245 L114.218265,19.3662245 L114.218265,27.5907143 L108.393469,27.5907143 L108.393469,6.08765306 Z" id="Fill-4" fill="#FFFFFF"></path>
        <path d="M129.506531,6.08765306 L138.351837,6.08765306 L142.420306,17.9746939 L142.462755,17.9746939 L146.468878,6.08765306 L155.314184,6.08765306 L155.314184,27.5907143 L149.488061,27.5907143 L149.488061,13.3902041 L149.445612,13.3902041 L145.310816,25.5770408 C145.118469,26.1341837 144.904898,26.5838776 144.69,26.862449 C144.476429,27.1622449 144.219082,27.3545918 143.876837,27.4620408 C143.555816,27.5694898 143.084898,27.6331633 142.506531,27.6331633 C141.906939,27.6331633 141.478469,27.6119388 141.221122,27.5469388 C140.963776,27.4832653 140.706429,27.3545918 140.471633,27.1622449 C140.321735,27.0335714 140.214286,26.9261224 140.106837,26.7987755 C140.021939,26.6687755 139.935714,26.5188776 139.850816,26.3477551 C139.764592,26.1766327 139.657143,25.8768367 139.528469,25.4908163 L135.352551,13.3477551 L135.310102,13.3477551 L135.310102,27.5907143 L129.506531,27.5907143 L129.506531,6.08765306" id="Fill-5" fill="#FFFFFF"></path>
        <path d="M173.646837,13.8836735 C173.45449,13.0267347 173.089694,12.2560204 172.533878,11.6126531 C172.169082,11.1629592 171.675612,10.8631633 171.098571,10.6495918 C170.518878,10.4572449 169.770714,10.3710204 168.848776,10.3710204 C167.157449,10.3710204 165.958265,10.7782653 165.272449,11.6352041 C164.951429,12.019898 164.672857,12.4908163 164.459286,13.0267347 C164.265612,13.5626531 164.09449,14.1622449 163.987041,14.8679592 C163.880918,15.5537755 163.837143,16.3244898 163.837143,17.1814286 C163.837143,18.4668367 163.965816,19.5585714 164.244388,20.4367347 C164.501735,21.314898 164.930204,22.0431633 165.487347,22.6215306 C166.215612,23.3497959 167.349796,23.7132653 168.891224,23.7132653 C169.770714,23.7132653 170.541429,23.5859184 171.204694,23.3497959 C171.848061,23.092449 172.38398,22.7077551 172.811122,22.1930612 C173.218367,21.6796939 173.539388,21.015102 173.733061,20.2231633 C173.925408,19.429898 174.031531,18.4668367 174.031531,17.3313265 C174.031531,16.1109184 173.904184,14.9541837 173.646837,13.8836735 Z M179.193061,22.0431633 C178.743367,23.4784694 178.037653,24.6776531 177.095816,25.6194898 C176.473673,26.2416327 175.766633,26.755 174.953469,27.1622449 C174.13898,27.5469388 173.218367,27.8467347 172.190306,28.0404082 C171.14102,28.2539796 169.984286,28.3402041 168.656429,28.3402041 C167.79949,28.3402041 166.986327,28.2964286 166.215612,28.2115306 C165.443571,28.1040816 164.759082,27.9541837 164.115714,27.7618367 C163.494898,27.5694898 162.916531,27.3121429 162.381939,26.9911224 C161.867245,26.6913265 161.375102,26.3265306 160.946633,25.9206122 C160.260816,25.2772449 159.705,24.5277551 159.275204,23.7132653 C158.826837,22.900102 158.50449,21.9569388 158.290918,20.9302041 C158.077347,19.8795918 157.969898,18.7241837 157.969898,17.46 C157.969898,16.1321429 158.077347,14.9117347 158.269694,13.755 C158.483265,12.6194898 158.783061,11.6126531 159.190306,10.7132653 C159.597551,9.83510204 160.089694,9.04316327 160.689286,8.40112245 C161.525,7.50040816 162.616735,6.83714286 163.944592,6.38744898 C165.272449,5.9377551 166.900102,5.72285714 168.785102,5.72285714 C170.177959,5.72285714 171.355918,5.80908163 172.31898,5.98020408 C173.283367,6.15132653 174.13898,6.42989796 174.867245,6.81591837 C175.59551,7.17938776 176.281327,7.69408163 176.923367,8.33612245 C177.609184,9.04316327 178.187551,9.79265306 178.61602,10.6283673 C179.043163,11.4415306 179.386735,12.3634694 179.579082,13.3902041 C179.79398,14.4408163 179.900102,15.5962245 179.900102,16.9254082 C179.900102,18.8953061 179.665306,20.6078571 179.193061,22.0431633 Z" id="Fill-6" fill="#FFFFFF"></path>
        <polyline id="Fill-7" fill="#FFFFFF" points="188.314286 6.08765306 194.139082 6.08765306 194.139082 16.5818367 194.181531 16.5818367 201.377959 6.08765306 207.802347 6.08765306 200.457347 16.8179592 207.824898 27.5907143 201.33551 27.5907143 194.181531 17.310102 194.139082 17.310102 194.139082 27.5907143 188.314286 27.5907143 188.314286 6.08765306"></polyline>
        <polygon id="Fill-8" fill="#FFFFFF" points="209.639592 27.5907143 215.465714 27.5907143 215.465714 6.08765306 209.639592 6.08765306"></polygon>
        <path d="M225.499592,6.08765306 L231.646735,16.0034694 L231.689184,16.0034694 L231.689184,6.08765306 L237.515306,6.08765306 L237.515306,27.5907143 L233.552959,27.5907143 C232.909592,27.5907143 232.417449,27.5257143 232.031429,27.3983673 C231.667959,27.2909184 231.325714,27.0547959 230.983469,26.6913265 C230.661122,26.3477551 230.253878,25.7919388 229.782959,25.019898 L224.065612,15.7461224 L224.021837,15.7461224 L224.021837,27.5907143 L218.218265,27.5907143 L218.218265,6.08765306 L225.499592,6.08765306" id="Fill-9" fill="#FFFFFF"></path>
        <path d="M259.913776,14.7406122 L259.913776,27.5907143 L251.754286,27.5907143 C250.853571,27.5907143 250.125306,27.5694898 249.56949,27.5469388 C249.012347,27.5044898 248.518878,27.4408163 248.07051,27.3758163 C247.61949,27.3121429 247.148571,27.2046939 246.656429,27.0547959 C245.542143,26.7337755 244.579082,26.3053061 243.764592,25.7494898 C242.951429,25.1910204 242.286837,24.5065306 241.750918,23.6708163 C241.216327,22.8576531 240.809082,21.8932653 240.572959,20.8227551 C240.316939,19.7522449 240.188265,18.5092857 240.188265,17.0952041 C240.188265,13.1978571 241.087653,10.3710204 242.886429,8.59346939 C243.637245,7.84397959 244.536633,7.26561224 245.628367,6.83714286 C246.720102,6.40867347 247.919286,6.17387755 249.248469,6.10887755 C249.525714,6.10887755 249.976735,6.08765306 250.64,6.08765306 L259.956224,6.08765306 L259.956224,10.7132653 L250.811122,10.7132653 C250.146531,10.7132653 249.675612,10.7344898 249.375816,10.7782653 C249.07602,10.7994898 248.797449,10.8631633 248.562653,10.9493878 C248.026735,11.1417347 247.555816,11.5065306 247.148571,11.9986735 C246.763878,12.4908163 246.462755,13.0691837 246.291633,13.7337755 C246.206735,14.0760204 246.141735,14.4832653 246.099286,14.9541837 C246.056837,15.425102 246.035612,15.8960204 246.035612,16.3682653 C246.035612,17.310102 246.099286,18.1458163 246.206735,18.8740816 C246.314184,19.6023469 246.462755,20.2231633 246.677653,20.7365306 C246.891224,21.23 247.169796,21.6359184 247.513367,21.9357143 C247.898061,22.3005102 248.391531,22.5578571 249.033571,22.7077551 C249.654388,22.8788776 250.511327,22.942551 251.581837,22.942551 L254.108878,22.942551 L254.108878,19.195102 L250.446327,19.195102 L250.446327,14.7406122 L259.913776,14.7406122" id="Fill-10" fill="#FFFFFF"></path>
        <path d="M1.59581633,29.9147959 C1.59846939,30.739898 2.24316327,31.3965306 3.06030612,31.3965306 L34.4194898,31.4137755 C35.2406122,31.412449 35.9158163,30.7452041 35.9171429,29.9320408 L35.9171429,1.02295918 L34.3332653,1.02295918 C33.7708163,2.23142857 32.6140816,2.94510204 31.2557143,2.93714286 C31.2862245,2.93581633 31.3207143,2.9305102 31.3578571,2.92122449 C31.3180612,2.9305102 31.2756122,2.93714286 31.2344898,2.93714286 L31.2172449,2.93714286 C31.2172449,2.93714286 31.2172449,2.93714286 31.2185714,2.93714286 C31.1960204,2.93714286 31.1734694,2.93714286 31.1509184,2.93714286 L31.1164286,2.93581633 C29.8031633,2.90928571 28.710102,2.18765306 28.164898,1.02295918 L26.0411224,1.02295918 C25.4693878,2.22744898 24.3179592,2.95040816 22.9516327,2.93714286 C22.9503061,2.93714286 22.9503061,2.93714286 22.9290816,2.93714286 C21.5654082,2.94377551 20.4219388,2.22346939 19.8541837,1.02295918 L17.4876531,1.02295918 C16.965,2.21020408 15.8361224,2.95173469 14.517551,2.93846939 C14.4658163,2.93846939 14.4154082,2.93846939 14.3596939,2.93714286 C13.0676531,2.89867347 12.0037755,2.17571429 11.5036735,1.02295918 L9.30561224,1.02295918 C8.76040816,2.22081633 7.61959184,2.95040816 6.2705102,2.93714286 C6.26122449,2.93714286 6.25061224,2.93714286 6.23602041,2.93714286 C4.8922449,2.94112245 3.76204082,2.21683673 3.22346939,1.02295918 L1.59581633,1.02295918 L1.59581633,29.9147959 Z" id="Fill-13" fill="#FFFFFF"></path>
        <path d="M1.59581633,29.9147959 C1.59846939,30.739898 2.24316327,31.3965306 3.06030612,31.3965306 L34.4194898,31.4137755 C35.2406122,31.412449 35.9158163,30.7452041 35.9171429,29.9320408 L35.9171429,1.02295918 L34.3332653,1.02295918 C33.7708163,2.23142857 32.6140816,2.94510204 31.2557143,2.93714286 C31.2862245,2.93581633 31.3207143,2.9305102 31.3578571,2.92122449 C31.3180612,2.9305102 31.2756122,2.93714286 31.2344898,2.93714286 L31.2172449,2.93714286 C31.2172449,2.93714286 31.2172449,2.93714286 31.2185714,2.93714286 C31.1960204,2.93714286 31.1734694,2.93714286 31.1509184,2.93714286 L31.1164286,2.93581633 C29.8031633,2.90928571 28.710102,2.18765306 28.164898,1.02295918 L26.0411224,1.02295918 C25.4693878,2.22744898 24.3179592,2.95040816 22.9516327,2.93714286 C22.9503061,2.93714286 22.9503061,2.93714286 22.9290816,2.93714286 C21.5654082,2.94377551 20.4219388,2.22346939 19.8541837,1.02295918 L17.4876531,1.02295918 C16.965,2.21020408 15.8361224,2.95173469 14.517551,2.93846939 C14.4658163,2.93846939 14.4154082,2.93846939 14.3596939,2.93714286 C13.0676531,2.89867347 12.0037755,2.17571429 11.5036735,1.02295918 L9.30561224,1.02295918 C8.76040816,2.22081633 7.61959184,2.95040816 6.2705102,2.93714286 C6.26122449,2.93714286 6.25061224,2.93714286 6.23602041,2.93714286 C4.8922449,2.94112245 3.76204082,2.21683673 3.22346939,1.02295918 L1.59581633,1.02295918 L1.59581633,29.9147959 Z M3.06030612,32.3847959 C1.69265306,32.3834694 0.610204082,31.2731633 0.60755102,29.9147959 L0.60755102,0.0333673469 L3.91061224,0.0333673469 L4.02602041,0.365 C4.40540816,1.40102041 5.13897959,1.92234694 6.24132653,1.94755102 C6.25061224,1.94755102 6.26122449,1.94755102 6.2705102,1.94755102 C7.37153061,1.93295918 8.12102041,1.40367347 8.50571429,0.363673469 L8.62244898,0.0333673469 L12.2027551,0.0333673469 L12.3141837,0.374285714 C12.6630612,1.37714286 13.3395918,1.88785714 14.3981633,1.94887755 C14.4379592,1.95020408 14.4764286,1.95153061 14.517551,1.95153061 C15.5694898,1.93826531 16.3269388,1.39040816 16.6771429,0.372959184 L16.7885714,0.0333673469 L20.5254082,0.0333673469 L20.6461224,0.354387755 C21.06,1.40765306 21.8041837,1.92632653 22.9317347,1.94755102 C22.9317347,1.94755102 22.9317347,1.94755102 22.9516327,1.94755102 C24.0791837,1.93163265 24.8353061,1.40897959 25.2491837,0.354387755 L25.369898,0.0333673469 L28.8387755,0.0333673469 L28.9581633,0.355714286 C29.3667347,1.40765306 30.1095918,1.93163265 31.2344898,1.94755102 C32.3739796,1.93163265 33.1354082,1.41295918 33.5386735,0.358367347 L33.6554082,0.0333673469 L36.9054082,0.0333673469 L36.9040816,29.9320408 C36.9027551,31.3010204 35.7831633,32.4007143 34.4194898,32.4033673 L3.06030612,32.3847959 Z" id="Fill-13" fill="#000000"></path>
        <path d="M23.4769388,11.4534694 C23.3270408,11.629898 23.4026531,12.0397959 23.4026531,12.0397959 L23.4026531,27.8427551 L14.3504082,27.8427551 L14.3504082,12.0397959 C14.3504082,12.0397959 14.3557143,11.6153061 14.1806122,11.4534694 C14.0015306,11.285 13.5637755,11.3314286 13.5637755,11.3314286 L4.21704082,11.3314286 L4.21704082,6.1805102 L33.6713265,6.1805102 L33.6713265,11.3314286 L24.1561224,11.3314286 C24.1561224,11.3314286 23.6493878,11.2478571 23.4769388,11.4534694" id="Fill-14" fill="#222200"></path>
        <polyline id="Fill-15" fill="#3A95C7" points="11.8963265 22.6984694 11.8963265 27.8507143 4.21704082 27.8507143 4.21704082 12.3793878 11.8963265 12.3793878 11.8963265 17.5090816 13.7269388 17.5064286 13.7269388 22.6931633 11.8963265 22.6984694"></polyline>
        <path d="M24.0393878,17.4732653 L24.6376531,17.4732653 C24.6376531,17.4732653 25.2571429,17.5528571 25.632551,17.2119388 C26.1180612,16.7715306 26.0145918,15.7660204 26.0145918,15.7660204 L26.0145918,12.4059184 L33.4856122,12.4059184 C33.4856122,12.4059184 33.8716327,16.7118367 32.1842857,18.4164286 C30.4558163,20.1647959 26.0145918,19.7177551 26.0145918,19.7177551 L26.0145918,20.5521429 C26.0145918,20.5521429 30.4558163,20.105102 32.1842857,21.8534694 C33.8716327,23.5580612 33.4856122,27.8639796 33.4856122,27.8639796 L26.0145918,27.8639796 L26.0145918,24.5038776 C26.0145918,24.5038776 26.0822449,23.5341837 25.632551,23.0579592 C25.1297959,22.5260204 24.5739796,22.7011224 24.5739796,22.7011224 L24.0393878,22.7011224 L24.0393878,17.4732653" id="Fill-16" fill="#3A95C7"></path>
        <path d="M37.7092857,32.0027551 C36.9995918,32.0027551 36.419898,32.5943878 36.419898,33.3266327 C36.419898,34.0588776 36.9995918,34.6491837 37.7092857,34.6491837 C38.4123469,34.6491837 38.9920408,34.0588776 38.9920408,33.3266327 C38.9920408,32.5943878 38.4189796,32.0027551 37.7092857,32.0027551 Z M37.7092857,32.2985714 C38.2584694,32.2985714 38.6962245,32.754898 38.6962245,33.3266327 C38.6962245,33.8917347 38.2518367,34.3533673 37.7092857,34.3533673 C37.160102,34.3533673 36.7157143,33.8917347 36.7157143,33.3266327 C36.7157143,32.754898 37.160102,32.2985714 37.7092857,32.2985714 Z M37.1972449,32.6646939 L37.1972449,33.9434694 L37.5116327,33.9434694 L37.5116327,33.4539796 L37.7092857,33.4539796 C37.9003061,33.4539796 37.937449,33.4990816 37.9560204,33.7630612 C37.9626531,33.8652041 37.9679592,33.8917347 37.9931633,33.9434694 L38.2889796,33.9434694 C38.2823469,33.9235714 38.2757143,33.9235714 38.2757143,33.8970408 C38.2704082,33.8652041 38.2637755,33.8466327 38.2637755,33.8280612 C38.2637755,33.8147959 38.2584694,33.794898 38.2584694,33.7564286 C38.2452041,33.5455102 38.2146939,33.4354082 38.1589796,33.3903061 L38.0979592,33.3385714 L38.1589796,33.2881633 C38.239898,33.1979592 38.2637755,33.1395918 38.2637755,33.037449 C38.2637755,32.7933673 38.0979592,32.6646939 37.7955102,32.6646939 L37.1972449,32.6646939 Z M37.505,32.9087755 L37.7344898,32.9087755 C37.8883673,32.9087755 37.9560204,32.9605102 37.9560204,33.0626531 C37.9560204,33.1793878 37.8883673,33.2231633 37.7212245,33.2165306 L37.505,33.2165306 L37.505,32.9087755 Z" id="Fill-17" fill="#000000"></path>
    </g>
</svg>